<svg xmlns:xlink="http://www.w3.org/1999/xlink" xmlns="http://www.w3.org/2000/svg" viewBox="0 0 24 24" focusable="false" aria-hidden="true" className="css-6qu7l6" width="60" height="34"><path fill-rule="evenodd" clip-rule="evenodd" d="M15 5.5C15 6.752 14.0797 7.78905 12.8786 7.97152L14.8386 10.0165C15.2206 10.4151 15.8534 10.4286 16.2522 10.0467L17.3083 9.03531C17.7072 8.65332 18.3402 8.66701 18.7222 9.06588C19.1042 9.46476 19.0905 10.0978 18.6916 10.4798L17.6355 11.4912C16.4392 12.6368 14.5408 12.5962 13.3947 11.4004L13.2738 11.2742L12.2742 15.2724C12.2476 15.3787 12.2103 15.4795 12.1637 15.574L14.2219 16.9461C14.5514 17.1658 14.8342 17.4486 15.0539 17.7781L16.832 20.4453C17.1384 20.9048 17.0142 21.5257 16.5547 21.832C16.0952 22.1384 15.4743 22.0142 15.1679 21.5547L13.3898 18.8875C13.3166 18.7777 13.2223 18.6834 13.1125 18.6102L10.5125 16.8769L10.0556 17.8759C9.67127 18.7162 8.92113 19.3325 8.02221 19.5465L6.2316 19.9728C5.69433 20.1007 5.1551 19.7689 5.02719 19.2316C4.89928 18.6943 5.23113 18.1551 5.7684 18.0272L7.55901 17.6009C7.85865 17.5296 8.1087 17.3241 8.23681 17.044L9.34817 14.6141C9.35282 14.591 9.35803 14.5679 9.3638 14.5448L10.5497 9.80111L9.64545 9.95182C9.48741 9.97816 9.33802 10.0421 9.20985 10.1382L7.6 11.3456C7.15817 11.677 6.53137 11.5874 6.2 11.1456C5.86863 10.7038 5.95817 10.077 6.4 9.7456L8.00985 8.53821C8.39437 8.24983 8.84254 8.05805 9.31665 7.97903L11.2383 7.65875C10.4975 7.22485 10 6.42053 10 5.5C10 4.11929 11.1193 3 12.5 3C13.8807 3 15 4.11929 15 5.5Z" fill="#878A9E"></path></svg>