<svg xmlns:xlink="http://www.w3.org/1999/xlink" xmlns="http://www.w3.org/2000/svg" viewBox="0 0 24 24" focusable="false" aria-hidden="true" className="css-6qu7l6" width="60" height="34"><path fill-rule="evenodd" clip-rule="evenodd" d="M18 4H6V20H18V4ZM6 2C4.89543 2 4 2.89543 4 4V20C4 21.1046 4.89543 22 6 22H18C19.1046 22 20 21.1046 20 20V4C20 2.89543 19.1046 2 18 2H6ZM12 6.25C12.4142 6.25 12.75 6.58579 12.75 7L12.75 8H14.7802C15.4112 8 15.8845 8.57732 15.7608 9.19612L15.1608 12.1961C15.0673 12.6635 14.6569 13 14.1802 13H12.75L12.75 15.438C12.75 15.8473 12.6065 16.2438 12.3444 16.5583L11.5762 17.4801C11.311 17.7983 10.8381 17.8413 10.5199 17.5762C10.2017 17.311 10.1587 16.8381 10.4238 16.5199L11.1921 15.598C11.2295 15.5531 11.25 15.4964 11.25 15.438L11.25 13H9.81979C9.34311 13 8.9327 12.6635 8.83921 12.1961L8.23921 9.19612C8.11545 8.57733 8.58875 8 9.21979 8H11.25L11.25 7C11.25 6.58579 11.5858 6.25 12 6.25ZM11.25 9.5H9.82969L10.2297 11.5H11.25L11.25 9.5ZM12.75 11.5H13.7703L14.1703 9.5H12.75L12.75 11.5Z" fill="#878A9E"></path></svg>