<svg xmlns:xlink="http://www.w3.org/1999/xlink" xmlns="http://www.w3.org/2000/svg" viewBox="0 0 24 24" focusable="false" aria-hidden="true" className="css-6qu7l6" width="60" height="34"><path fill-rule="evenodd" clip-rule="evenodd" d="M15 4H5L5 20H15V19.5218C14.9997 19.5072 14.9997 19.4925 15 19.4778V4ZM17 14.0441V4C17 2.89543 16.1046 2 15 2H5C3.89543 2 3 2.89543 3 4V20C3 21.1046 3.89543 22 5 22H15C16.1046 22 17 21.1046 17 20V19.6834L21.6962 7.30253C22.3008 5.7085 21.4572 3.93164 19.8399 3.39252L18.8163 3.05131C18.2923 2.87667 17.726 3.15983 17.5513 3.68377C17.3767 4.20771 17.6599 4.77403 18.1838 4.94868L19.2074 5.28988C19.7465 5.46959 20.0277 6.06188 19.8262 6.59322L17 14.0441ZM12.9484 10.355C12.9138 10.2011 12.8604 10.0534 12.7898 9.91635C12.722 9.77375 12.6353 9.64388 12.5327 9.5313C12.384 9.36272 12.2079 9.22864 12.0142 9.1365C11.6242 8.9545 11.187 8.9545 10.7971 9.1365C10.614 9.22464 10.4458 9.34834 10.3 9.50206L10.2786 9.5313L10 9.84811L9.72145 9.5313L9.70002 9.50206C9.55421 9.34834 9.38599 9.22464 9.20291 9.1365C8.813 8.9545 8.37575 8.9545 7.98584 9.1365C7.79213 9.22864 7.61602 9.36272 7.4673 9.5313C7.2639 9.7564 7.11991 10.0417 7.05161 10.355C7.01528 10.5141 6.99798 10.6781 7.00019 10.8424C7.00019 10.9974 7.01733 11.1514 7.05161 11.3006C7.08754 11.4517 7.13934 11.5973 7.20589 11.7344C7.27776 11.8752 7.36566 12.0047 7.4673 12.1194L10 15L12.5327 12.1194C12.6343 12.0063 12.7213 11.8767 12.7898 11.7344C12.929 11.4639 13.0015 11.1558 12.9998 10.8424C13.002 10.6781 12.9847 10.5141 12.9484 10.355Z" fill="#878A9E"></path></svg>