<svg xmlns:xlink="http://www.w3.org/1999/xlink" xmlns="http://www.w3.org/2000/svg" viewBox="0 0 24 24" focusable="false" aria-hidden="true" className="css-6qu7l6" width="60" height="34"><path fill-rule="evenodd" clip-rule="evenodd" d="M14 3H17C18.6569 3 20 4.26639 20 5.82857V18.1714C20 19.7336 18.6569 21 17 21H14V19.4571H17C17.7531 19.4571 18.3636 18.8815 18.3636 18.1714V5.82857C18.3636 5.11849 17.7531 4.54286 17 4.54286H14V3Z" fill="#878A9E"></path><path fill-rule="evenodd" clip-rule="evenodd" d="M4.78307 3.61965C4.32553 3.72389 4 4.13995 4 4.62048V19.3795C4 19.86 4.32553 20.2761 4.78307 20.3803L11.7831 21.9752C12.4076 22.1175 13 21.6302 13 20.9743V3.02566C13 2.36976 12.4076 1.88255 11.7831 2.02483L4.78307 3.61965ZM10 14.0505C10.5523 14.0505 11 13.362 11 12.5126C11 11.6633 10.5523 10.9748 10 10.9748C9.44772 10.9748 9 11.6633 9 12.5126C9 13.362 9.44772 14.0505 10 14.0505Z" fill="#878A9E"></path></svg>