<?xml version="1.0" standalone="no"?>
<!DOCTYPE svg PUBLIC "-//W3C//DTD SVG 20010904//EN"
 "http://www.w3.org/TR/2001/REC-SVG-20010904/DTD/svg10.dtd">
<svg version="1.0" xmlns="http://www.w3.org/2000/svg"
 width="30.000000pt" height="30.000000pt" viewBox="0 0 30.000000 30.000000"
 preserveAspectRatio="xMidYMid meet">

<g transform="translate(0.000000,30.000000) scale(0.100000,-0.100000)"
fill="#808080"  stroke="none">
<path d="M74 265 c-4 -9 -2 -21 4 -27 15 -15 44 -1 40 19 -4 23 -36 29 -44 8z"/>
<path d="M214 255 c-4 -9 -2 -21 4 -27 15 -15 44 -1 40 19 -4 23 -36 29 -44 8z"/>
<path d="M111 223 c-54 -14 -80 -34 -81 -62 0 -9 7 -11 21 -8 14 4 18 2 11 -6
-8 -10 -32 -94 -32 -111 0 -3 4 -6 8 -6 5 0 17 19 26 42 13 34 19 40 26 28 5
-8 10 -27 10 -42 0 -16 5 -28 11 -28 8 0 9 24 4 80 l-7 81 41 16 c23 9 41 20
41 25 0 11 -14 9 -79 -9z"/>
<path d="M170 190 c-19 -11 -39 -21 -45 -23 -5 -3 -7 -8 -3 -12 4 -4 21 -2 38
4 29 10 31 9 25 -7 -21 -48 -34 -89 -35 -104 0 -32 17 -19 29 22 14 46 25 45
41 -5 13 -38 36 -49 26 -12 -3 12 -9 39 -12 61 -7 37 -6 38 15 26 13 -6 25 -9
28 -6 11 11 -19 64 -40 70 -29 7 -26 8 -67 -14z"/>
</g>
</svg>
