<svg xmlns:xlink="http://www.w3.org/1999/xlink" xmlns="http://www.w3.org/2000/svg" viewBox="0 0 24 24" focusable="false" aria-hidden="true" className="css-6qu7l6" width="60" height="34"><path fill-rule="evenodd" clip-rule="evenodd" d="M7 16.6676L12 19.6676L17 16.6676L20 18.4676V12C20 7.58172 16.4183 4 12 4C7.58172 4 4 7.58172 4 12V18.4676L7 16.6676ZM2.95353 21.4279C2.53388 21.6797 2 21.3774 2 20.888V12C2 6.47715 6.47715 2 12 2C17.5228 2 22 6.47715 22 12V20.888C22 21.3774 21.4661 21.6797 21.0465 21.4279L17 19L12 22L7 19L2.95353 21.4279ZM11 11C11 12.1046 10.3284 13 9.5 13C8.67157 13 8 12.1046 8 11C8 9.89543 8.67157 9 9.5 9C10.3284 9 11 9.89543 11 11ZM14.5 13C15.3284 13 16 12.1046 16 11C16 9.89543 15.3284 9 14.5 9C13.6716 9 13 9.89543 13 11C13 12.1046 13.6716 13 14.5 13Z" fill="#878A9E"></path></svg>