<svg xmlns:xlink="http://www.w3.org/1999/xlink" xmlns="http://www.w3.org/2000/svg" viewBox="0 0 24 24" focusable="false" aria-hidden="true" className="css-6qu7l6" width="60" height="34"><path fill-rule="evenodd" clip-rule="evenodd" d="M8.05219 7.43888C7.50953 7.73632 7.02441 8.29544 6.42689 9.61299C5.99116 10.5738 5.08805 11.2964 4 11.4242V15H5.17071C5.58254 13.8348 6.69378 13 8 13C9.30622 13 10.4175 13.8348 10.8293 15H14.1707C14.5825 13.8348 15.6938 13 17 13C18.3062 13 19.4175 13.8348 19.8293 15H20V12.9683C20 12.1267 19.3177 11.4444 18.4761 11.4444C17.1935 11.4444 16.0834 10.751 15.3782 9.8346C14.9045 9.21911 14.2514 8.49236 13.4763 7.92674C12.6998 7.36006 11.8637 7 11 7C9.45606 7 8.63443 7.11975 8.05219 7.43888ZM19.8293 17H21C21.5523 17 22 16.5523 22 16V12.9683C22 11.0221 20.4223 9.44444 18.4761 9.44444C17.9351 9.44444 17.3701 9.14369 16.9632 8.61486C16.4243 7.91459 15.6389 7.02898 14.6553 6.31117C13.6731 5.59443 12.4301 5 11 5C9.45786 5 8.16523 5.09621 7.09091 5.68505C5.977 6.29559 5.26325 7.33646 4.60544 8.78696C4.41662 9.20332 4.03544 9.44444 3.65396 9.44444C2.7405 9.44444 2 10.1849 2 11.0984V16C2 16.5523 2.44772 17 3 17H5.17071C5.58254 18.1652 6.69378 19 8 19C9.30622 19 10.4175 18.1652 10.8293 17H14.1707C14.5825 18.1652 15.6938 19 17 19C18.3062 19 19.4175 18.1652 19.8293 17ZM9 16C9 15.4477 8.55228 15 8 15C7.44772 15 7 15.4477 7 16C7 16.5523 7.44772 17 8 17C8.55228 17 9 16.5523 9 16ZM17 15C16.4477 15 16 15.4477 16 16C16 16.5523 16.4477 17 17 17C17.5523 17 18 16.5523 18 16C18 15.4477 17.5523 15 17 15Z" fill="#878A9E"></path></svg>