<svg xmlns:xlink="http://www.w3.org/1999/xlink" xmlns="http://www.w3.org/2000/svg" viewBox="0 0 24 24" focusable="false" aria-hidden="true" className="css-6qu7l6" width="60" height="34"><path fill-rule="evenodd" clip-rule="evenodd" d="M4.73145 4C3.76983 4 2.94188 4.67292 2.75329 5.60777L2.03927 9.1472C1.87895 9.9419 2.21823 10.754 2.89841 11.2035L3.29461 11.4654L2.12846 17.6314C1.89568 18.8622 2.84811 20 4.11124 20H7.77304C8.76082 20 9.60333 19.2909 9.76364 18.3246L10.1908 15.75H13.2037C14.0137 15.75 14.7197 15.2035 14.9162 14.4244L15.5275 12H18.4682C19.8567 12 21.0671 11.0631 21.4038 9.72761L21.9082 7.72761C22.3856 5.83416 20.9411 4 18.9725 4H4.73145ZM13.9679 12H10.8129L10.4396 14.25H13.2037C13.3194 14.25 13.4203 14.1719 13.4483 14.0606L13.9679 12ZM4.01743 9.53943L4.73145 6H18.9725C19.6287 6 20.1102 6.61139 19.9511 7.24253L19.4467 9.24254C19.3345 9.6877 18.931 10 18.4682 10H10.8129C9.8251 10 8.9826 10.7091 8.82229 11.6754L7.77304 18H4.11124L5.2774 11.834C5.42642 11.046 5.08645 10.246 4.41363 9.80129L4.01743 9.53943Z" fill="#878A9E"></path></svg>