<svg xmlns:xlink="http://www.w3.org/1999/xlink" xmlns="http://www.w3.org/2000/svg" viewBox="0 0 24 24" focusable="false" aria-hidden="true" className="css-6qu7l6" width="60" height="34"><path fill-rule="evenodd" clip-rule="evenodd" d="M19.9919 6.15083C20.0437 7.51638 20.1056 9.21045 19.7911 10.9807L13.0193 4.20888C14.7896 3.89445 16.4836 3.95635 17.8492 4.0081C19.0483 4.05355 19.9465 4.95176 19.9919 6.15083ZM16.8184 16.8184C17.9542 15.6826 18.6979 14.4474 19.1805 13.1985L10.8015 4.8195C9.55263 5.30217 8.31745 6.04578 7.18165 7.18159C6.02307 8.34017 5.27256 9.60215 4.79084 10.8766L13.1234 19.2092C14.3979 18.7275 15.6599 17.977 16.8184 16.8184ZM10.8923 19.8065L4.19353 13.1077C3.89657 14.8459 3.95727 16.5063 4.00816 17.8491C4.05361 19.0482 4.95182 19.9464 6.15089 19.9919C7.49368 20.0428 9.15412 20.1035 10.8923 19.8065ZM17.9249 2.00954C20.1691 2.09459 21.9054 3.83092 21.9905 6.07508L21.9945 6.17983C22.1034 9.03534 22.299 14.1662 18.2327 18.2326C14.1663 22.2989 9.0354 22.1033 6.1799 21.9944L6.07515 21.9904C3.83098 21.9054 2.09465 20.169 2.0096 17.9249L2.00561 17.8201C1.89673 14.9646 1.70109 9.83372 5.76743 5.76737C9.83378 1.70103 14.9647 1.89667 17.8202 2.00555L17.9249 2.00954ZM10.7071 9.29289C10.3166 8.90237 9.68345 8.90237 9.29292 9.29289C8.9024 9.68342 8.9024 10.3166 9.29292 10.7071L13.2929 14.7071C13.6834 15.0976 14.3166 15.0976 14.7071 14.7071C15.0977 14.3166 15.0977 13.6834 14.7071 13.2929L10.7071 9.29289Z" fill="#878A9E"></path></svg>